Patient4_TMGait_0pt8_01_right_05_GRF.mot
version=1
nRows=45
nColumns=19
inDegrees=no
endheader
time	F1x	F1y	F1z	M1x	M1y	M1z	F2x	F2y	F2z	M2x	M2y	M2z	EC1x	EC1y	EC1z	EC2x	EC2y	EC2z
5.32	6.1744	720.1172	63.5841	-260.8124	-62.5014	754.1012	-10.1934	-0.13538	-7.0868	3.6225	6.5009	4.356	-0.0592	0.0182	-0.0073	-0.0462	0.0165	0.9585
5.3313	7.7479	728.1615	62.5042	-263.9216	-60.4102	758.2352	-6.985	0.86246	-4.9793	2.8386	4.5874	4.0103	-0.0592	0.0182	-0.0073	-0.0462	0.0165	0.9585
5.3426	9.4421	736.8971	61.4226	-267.2758	-58.1237	762.5247	-4.2971	1.7302	-3.1278	2.1646	2.9371	3.764	-0.0592	0.0182	-0.0073	-0.0462	0.0165	0.9585
5.3539	11.0939	745.6265	60.3792	-270.5776	-55.7833	766.4742	-2.2601	2.4169	-1.6728	1.6489	1.6604	3.6213	-0.0592	0.0182	-0.0073	-0.0462	0.0165	0.9585
5.3651	12.5702	753.5612	59.4578	-273.5053	-53.5646	769.4716	-0.87817	2.9435	-0.6307	1.301	0.76218	3.6157	-0.0592	0.0182	-0.0073	-0.0462	0.0165	0.9585
5.3764	13.8364	759.8844	58.6828	-275.7464	-51.548	770.8388	-0.035916	3.3169	0.043593	1.0955	0.19032	3.7015	-0.0592	0.0182	-0.0073	-0.0462	0.0165	0.9585
5.3877	14.9226	763.8625	58.1078	-277.0311	-49.8042	769.9257	0.38175	3.5702	0.41926	0.99743	-0.11332	3.8507	-0.0592	0.0182	-0.0073	-0.0462	0.0165	0.9585
5.399	15.9368	764.9665	57.6911	-277.1748	-48.2815	766.2357	0.51353	3.6863	0.57184	0.95733	-0.21674	3.9751	-0.0592	0.0182	-0.0073	-0.0462	0.0165	0.9585
5.4103	17.0251	762.9788	57.4307	-276.1061	-46.9404	759.5676	0.44716	3.6562	0.56514	0.92935	-0.16916	4.0228	-0.0592	0.0182	-0.0073	-0.0462	0.0165	0.9585
5.4216	18.3496	758.0132	57.3009	-273.8786	-45.7049	750.0382	0.28007	3.4169	0.45424	0.86044	-0.021806	3.846	-0.0592	0.0182	-0.0073	-0.0462	0.0165	0.9585
5.4329	20.0571	750.6122	57.3232	-270.6965	-44.5411	738.1638	0.061452	2.9085	0.27729	0.70438	0.19661	3.3228	-0.0592	0.0182	-0.0073	-0.0462	0.0165	0.9585
5.4441	22.2832	741.7532	57.527	-266.9235	-43.4201	724.8597	-0.14692	2.0398	0.05405	0.41301	0.46263	2.3171	-0.0592	0.0182	-0.0073	-0.0462	0.0165	0.9585
5.4554	25.1197	732.8088	57.945	-263.0633	-42.3206	711.409	-0.31937	0.7531	-0.18403	-0.046751	0.74149	0.76853	-0.0592	0.0182	-0.0073	-0.0462	0.0165	0.9585
5.4667	28.5985	725.3415	58.632	-259.6871	-41.2565	699.2772	-0.39847	-0.97304	-0.41194	-0.68713	0.9875	-1.3539	-0.0592	0.0182	-0.0073	-0.0462	0.0165	0.9585
5.478	32.6439	720.8438	59.6032	-257.3351	-40.2437	689.8786	-0.34248	-3.0587	-0.59433	-1.4789	1.1375	-3.9474	-0.0592	0.0182	-0.0073	-0.0462	0.0165	0.9585
5.4893	37.0749	720.4123	60.8807	-256.396	-39.3407	684.2711	-0.067867	-5.29	-0.66748	-2.3326	1.0818	-6.7465	-0.0592	0.0182	-0.0073	-0.0462	0.0165	0.9585
5.5006	41.6421	724.4656	62.4313	-257.0133	-38.5889	682.8899	0.51957	-7.2154	-0.55857	-3.0653	0.69014	-9.1746	-0.0592	0.0182	-0.0073	-0.0462	0.0165	0.9585
5.5119	46.072	732.6894	64.2129	-259.0645	-38.0432	685.4745	1.5287	-8.089	-0.15783	-3.3734	-0.21626	-10.3171	-0.0592	0.0182	-0.0073	-0.0462	0.0165	0.9585
5.5231	50.1828	744.0975	66.132	-262.1937	-37.6983	691.1322	3.049	-6.7872	0.65543	-2.8029	-1.8238	-8.8016	-0.0592	0.0182	-0.0073	-0.0462	0.0165	0.9585
5.5344	53.9086	757.2658	68.0906	-265.8981	-37.5124	698.5525	5.1148	-1.7919	2.0041	-0.74428	-4.2964	-2.7744	-0.0592	0.0182	-0.0073	-0.0462	0.0165	0.9585
5.5457	57.3543	770.5219	69.9523	-269.6048	-37.356	706.1743	7.6437	8.7517	3.9926	3.543	-7.7229	10.0312	-0.0592	0.0182	-0.0073	-0.0462	0.0165	0.9585
5.557	60.7368	782.053	71.5643	-272.7114	-37.0373	712.3181	10.3839	26.8437	6.636	10.8495	-12.0104	32.0732	-0.0592	0.0182	-0.0073	-0.0462	0.0165	0.9585
5.5683	64.3043	789.9274	72.7496	-274.5888	-36.3277	715.2031	12.7957	54.2119	9.8161	21.8516	-16.7832	65.4892	-0.0592	0.0182	-0.0073	-0.0462	0.0165	0.9585
5.5796	68.1909	792.0918	73.2805	-274.5694	-34.9963	712.9926	13.9161	91.7087	13.1512	36.8643	-21.1786	111.3537	-0.0592	0.0182	-0.0073	-0.0462	0.0165	0.9585
5.5909	72.3241	786.4217	72.8946	-271.9572	-32.8657	703.8456	12.2092	138.5747	16.0031	55.5494	-23.7957	168.7969	-0.0592	0.0182	-0.0073	-0.0462	0.0165	0.9585
5.6021	76.3629	770.9126	71.2984	-266.0921	-29.8277	686.1077	6.4379	192.0825	17.4002	76.7651	-22.9601	234.5471	-0.0592	0.0182	-0.0073	-0.0462	0.0165	0.9585
5.6134	79.79	743.9975	68.2416	-256.4571	-25.8792	658.5646	-3.0205	247.7888	16.2411	98.6757	-17.4954	303.1437	-0.0592	0.0182	-0.0073	-0.0462	0.0165	0.9585
5.6247	81.9417	704.8404	63.59	-242.7738	-21.1613	620.6788	-14.379	300.3049	11.9227	119.1286	-7.4146	367.7911	-0.0592	0.0182	-0.0073	-0.0462	0.0165	0.9585
5.636	82.1696	653.5514	57.4079	-225.0692	-15.969	572.7315	-25.7764	345.8302	4.8061	136.6552	6.0229	423.522	-0.0592	0.0182	-0.0073	-0.0462	0.0165	0.9585
5.6473	79.959	591.4025	49.9725	-203.741	-10.7169	515.9969	-35.9214	384.1865	-3.9157	151.2222	20.8409	469.8755	-0.0592	0.0182	-0.0073	-0.0462	0.0165	0.9585
5.6586	75.0471	520.746	41.7643	-179.5437	-5.8787	452.5971	-44.2918	417.6648	-13.1126	163.789	35.4463	509.5541	-0.0592	0.0182	-0.0073	-0.0462	0.0165	0.9585
5.6699	67.477	444.8582	33.3897	-153.5449	-1.9167	385.4047	-50.7739	449.4455	-21.9724	175.659	48.8166	546.4424	-0.0592	0.0182	-0.0073	-0.0462	0.0165	0.9585
5.6811	57.6334	367.5591	25.4054	-127.0197	0.87464	317.6618	-55.5092	482.2459	-29.7959	187.9438	60.1821	583.8879	-0.0592	0.0182	-0.0073	-0.0462	0.0165	0.9585
5.6924	46.2378	292.8504	18.2665	-101.3264	2.4024	252.7071	-58.6611	517.3709	-36.2181	201.1802	69.186	623.5047	-0.0592	0.0182	-0.0073	-0.0462	0.0165	0.9585
5.7037	34.3466	224.3493	12.2782	-77.7141	2.8157	193.4975	-60.4914	554.6793	-41.2715	215.3074	75.9632	665.1865	-0.0592	0.0182	-0.0073	-0.0462	0.0165	0.9585
5.715	23.0961	164.7323	7.6035	-57.1186	2.4073	142.1775	-61.2986	592.968	-45.1802	229.8297	80.9023	707.5819	-0.0592	0.0182	-0.0073	-0.0462	0.0165	0.9585
5.7263	13.4323	115.3218	4.2423	-40.0172	1.528	99.7407	-61.3635	630.4196	-48.406	243.9997	84.632	748.648	-0.0592	0.0182	-0.0073	-0.0462	0.0165	0.9585
5.7376	5.853	76.1875	2.0216	-26.4532	0.5047	66.1633	-60.9317	665.1521	-51.3263	257.0522	87.6844	786.2426	-0.0592	0.0182	-0.0073	-0.0462	0.0165	0.9585
5.7489	0.47559	46.5232	0.71258	-16.1613	-0.43806	40.7058	-60.2453	695.5742	-54.247	268.3522	90.5016	818.5675	-0.0592	0.0182	-0.0073	-0.0462	0.0165	0.9585
5.7601	-2.8537	25.1259	0.012523	-8.7344	-1.1091	22.3353	-59.4737	720.6396	-57.2332	277.5016	93.2411	844.4348	-0.0592	0.0182	-0.0073	-0.0462	0.0165	0.9585
5.7714	-4.4206	10.6413	-0.28932	-3.7075	-1.4528	9.8882	-58.6724	739.9365	-60.1601	284.368	95.8031	863.3638	-0.0592	0.0182	-0.0073	-0.0462	0.0165	0.9585
5.7827	-4.6722	1.708	-0.36527	-0.6099	-1.4941	2.2008	-57.7878	753.5726	-62.7579	289.0367	97.8818	875.481	-0.0592	0.0182	-0.0073	-0.0462	0.0165	0.9585
5.794	-4.1655	-3.0084	-0.30523	1.0246	-1.3682	-1.8772	-56.7185	761.973	-64.746	291.7152	99.1436	881.2984	-0.0592	0.0182	-0.0073	-0.0462	0.0165	0.9585
5.8053	-3.3254	-4.8058	-0.17678	1.6471	-1.1773	-3.4625	-55.3704	765.6682	-66.0107	292.6383	99.438	881.4632	-0.0592	0.0182	-0.0073	-0.0462	0.0165	0.9585
5.8166	-2.429	-4.7867	-0.037042	1.6397	-0.97345	-3.4957	-53.7014	765.2609	-66.5686	292.0539	98.7772	876.7231	-0.0592	0.0182	-0.0073	-0.0462	0.0165	0.9585
